<svg xmlns="http://www.w3.org/2000/svg" id="Layer_1" data-name="Layer 1" viewBox="0 0 421.94 81.61">
  <defs>
    <style>
      .cls-1,.cls-2{fill:#ed1c24;stroke-width:0}.cls-2{fill:#2c57a7}
    </style>
  </defs>
  <path d="m60.62 80.93 16.8-20.67h33.99L95.57 80.73s-35.54.19-34.96.19ZM135.75 60.46l4.06 20.47h32.64l-4.64-21.05s-32.64.58-32.06.58M84.95 50.03h34.19l10.82-15.26 2.9 15.06h33.22L156.03.77H123zM184.23 59.68h79l-6.18 21.25h-79.38zM202 0l-14.87 50.03h79.38l5.99-18.74h-47.32l2.32-10.24h47.13l5.6-20.86S201.42 0 202 0M284.75 60.3l-6.36 20.73h68.32l15.08-20.73h-77.03ZM288.05 49.93h32.74L335.63.22H304.3z" class="cls-2"/>
  <path d="m371.35 60.38-3.14 4.7h53.73v-4.27z" class="cls-1"/>
  <path d="M365.36 68.79h56.58v4.56h-60z" class="cls-2"/>
  <path d="m358.8 77.34-3.27 4.27h66.41v-4.56zM0 59.62V64h63.86l3.31-4.3z" class="cls-1"/>
  <path d="M0 67.68v4.38h57.24l3.31-4.13z" class="cls-2"/>
  <path d="M0 75.75v4.3h50.95l3.4-4.3z" class="cls-1"/>
</svg>