<?xml version="1.0" encoding="utf-8"?>
<!-- Generator: Adobe Illustrator 28.2.0, SVG Export Plug-In . SVG Version: 6.00 Build 0)  -->
<svg version="1.1" baseProfile="basic" id="Layer_1"
	 xmlns="http://www.w3.org/2000/svg" xmlns:xlink="http://www.w3.org/1999/xlink" x="0px" y="0px" viewBox="0 0 204.5 196.1"
	 xml:space="preserve">
<style type="text/css">
	.st0{fill:#E92629;}
	.st1{fill:#EB2626;}
	.st2{fill:#FFFFFF;}
	.st3{fill:#394EA0;}
	.st4{fill:#221F1F;}
</style>
<g>
	<g>
		<path class="st0" d="M102,170.8c-40.1,0-72.7-32.6-72.7-72.7c0-40.1,32.6-72.7,72.7-72.7c40.1,0,72.7,32.6,72.7,72.7
			C174.7,138.2,142.1,170.8,102,170.8 M102,27.6c-38.9,0-70.5,31.6-70.5,70.5c0,38.9,31.6,70.5,70.5,70.5
			c38.9,0,70.5-31.6,70.5-70.5C172.5,59.2,140.9,27.6,102,27.6"/>
		<path class="st1" d="M24,166.2c-1,0-2.3-0.3-3.8-1.2c-2.2-1.3-3.6-3-3.9-4.9c-0.4-2.2,0.6-4.1,1.2-5.1l-7.2-11.2
			c-5.4-5.4-8.2-11.3-8.1-17.5c0.2-9.4,7.1-15.7,7.4-16l0.5-0.5l16.4,6.2l-1.2,1.2c0,0-4.1,4.1-8.1,8.8c-3.4,3.9,0.5,8.1,0.7,8.3
			l0.2,0.3l2.9,6.2c4.6,5.2,7.4,12.7,8.3,15.9c0.6,2.3,0.1,6.6-2.5,8.6C26.2,165.7,25.3,166.2,24,166.2 M10.7,112.4
			c-1.5,1.6-6,6.9-6.2,14c-0.1,5.5,2.4,10.9,7.5,16l8.2,12.7l-0.5,0.6c0,0-1.6,1.9-1.2,4c0.2,1.3,1.2,2.4,2.8,3.4
			c1.7,1,3.1,1.1,4.1,0.4c1.7-1.3,2.1-4.5,1.7-6.2c-0.8-3.1-3.5-10.2-7.9-15.1l-0.2-0.3l-2.9-6.2c-1.9-2.1-4.3-6.8-0.6-11.1
			c2.7-3.2,5.5-6.1,7-7.7L10.7,112.4z"/>
		<line class="st2" x1="18.9" y1="155" x2="27.4" y2="156.6"/>
		
			<rect x="22" y="151.5" transform="matrix(0.1846 -0.9828 0.9828 0.1846 -134.2667 149.8011)" class="st1" width="2.2" height="8.7"/>
		<line class="st2" x1="11.3" y1="143.1" x2="20.5" y2="142.1"/>
		
			<rect x="11.2" y="141.5" transform="matrix(0.9934 -0.1148 0.1148 0.9934 -16.2693 2.766)" class="st1" width="9.3" height="2.2"/>
		<path class="st1" d="M29.7,138.8c-2.2,0-5-0.6-7.1-3.3c-2.8-3.6-0.4-7.6,1.3-9.8l-7.8-1.8l7.9-8.6l0.4-0.1
			c0.3-0.1,7.6-1.3,12.2,8.6c4.6,10.1-3.4,14.4-3.5,14.4C32.8,138.4,31.5,138.8,29.7,138.8 M20.3,122.6l8,1.8l-1.5,1.4
			c0,0-5.1,4.8-2.4,8.2c2.9,3.6,7.8,2.1,7.8,2.1c0.1-0.1,6.1-3.3,2.3-11.4c-3.3-7.2-8.1-7.5-9.4-7.4L20.3,122.6z"/>
		<line class="st2" x1="17.1" y1="135" x2="23.5" y2="134.8"/>
		
			<rect x="17.1" y="133.8" transform="matrix(0.9996 -2.910322e-02 2.910322e-02 0.9996 -3.9175 0.6482)" class="st1" width="6.4" height="2.2"/>
		<g>
			<path class="st0" d="M102,4.4c51.6,0,93.7,42,93.7,93.7c0,4.6-0.3,9.1-1,13.5c0.4,0.5,1.1,1.2,1.9,2.3c0.9-5.1,1.3-10.4,1.3-15.8
				c0-52.9-43-95.9-95.9-95.9c-52.9,0-95.9,43-95.9,95.9c0,5.6,0.5,11.1,1.4,16.4c0.7-1,1.4-1.8,1.9-2.4c-0.7-4.6-1.1-9.3-1.1-14
				C8.3,46.4,50.4,4.4,102,4.4z"/>
			<path class="st0" d="M176.3,157c0.2-0.9,0.6-2.1,1.1-3.4c-17.1,23.1-44.5,38.2-75.4,38.2c-30.2,0-57.2-14.4-74.3-36.7
				c0.3,0.7,0.5,1.4,0.6,2c0.2,0.7,0.2,1.6,0.2,2.6c17.6,21,44,34.4,73.5,34.4c29.8,0,56.5-13.7,74.1-35.1
				C176.1,158.2,176.1,157.5,176.3,157z"/>
		</g>
		<path class="st1" d="M180.5,166.2c-1.2,0-2.2-0.5-2.9-1c-2.6-1.9-3.1-6.2-2.5-8.6c0.9-3.2,3.7-10.7,8.3-15.9l3.1-6.5
			c0.2-0.2,4-4.3,0.7-8.3c-4-4.7-8.1-8.8-8.1-8.8l-1.2-1.2l16.4-6.2l0.5,0.5c0.3,0.3,7.1,6.6,7.3,16c0.1,6.2-2.6,12.1-8.2,17.7
			L187,155c0.6,1,1.6,2.9,1.2,5.1c-0.3,2-1.7,3.6-3.9,4.9C182.8,165.9,181.6,166.2,180.5,166.2 M188.4,135.6l-3.1,6.5
			c-4.4,4.9-7.1,12.1-7.9,15.1c-0.4,1.7,0,4.9,1.7,6.2c1,0.8,2.4,0.7,4.1-0.4c1.7-1,2.6-2.1,2.8-3.4c0.4-2.1-1.2-4-1.2-4l-0.5-0.6
			l8.1-12.6c5.3-5.3,7.8-10.7,7.7-16.2c-0.2-7.1-4.7-12.4-6.2-14l-11.9,4.5c1.5,1.6,4.3,4.5,7,7.7
			C192.6,128.8,190.2,133.6,188.4,135.6"/>
		<line class="st2" x1="185.7" y1="155" x2="177.2" y2="156.6"/>
		
			<rect x="177.1" y="154.7" transform="matrix(0.9831 -0.1832 0.1832 0.9831 -25.4777 35.875)" class="st1" width="8.7" height="2.2"/>
		<line class="st2" x1="193.3" y1="143.1" x2="184.1" y2="142.1"/>
		
			<rect x="187.6" y="138" transform="matrix(0.1148 -0.9934 0.9934 0.1148 25.3445 313.6664)" class="st1" width="2.2" height="9.3"/>
		<path class="st1" d="M174.8,138.8c-1.7,0-3-0.4-3.1-0.4c-0.3-0.1-8.3-4.4-3.7-14.5c4.6-9.9,11.9-8.7,12.2-8.6l0.4,0.1l7.9,8.6
			l-7.8,1.8c1.7,2.1,4.1,6.2,1.3,9.8C179.8,138.2,177,138.8,174.8,138.8 M172.5,136.3c0.1,0,4.8,1.4,7.7-2.2
			c2.7-3.4-2.3-8.2-2.4-8.2l-1.5-1.4l8-1.8l-4.8-5.2c-1.3-0.1-6.1,0.2-9.4,7.4C166.3,133,172.3,136.2,172.5,136.3L172.5,136.3z"/>
		<line class="st2" x1="187.4" y1="135" x2="181" y2="134.8"/>
		
			<rect x="183.1" y="131.7" transform="matrix(2.834445e-02 -0.9996 0.9996 2.834445e-02 44.1716 315.2458)" class="st1" width="2.2" height="6.4"/>
		<path class="st1" d="M19.6,95v11.3c2.7-0.4,4.8-2.8,4.8-5.6C24.4,97.8,22.3,95.5,19.6,95"/>
		<path class="st1" d="M17.4,95.1c-2.5,0.6-4.4,2.9-4.4,5.6c0,2.7,1.9,4.9,4.4,5.6V95.1z"/>
		<path class="st1" d="M184,95.1c-2.5,0.6-4.4,2.9-4.4,5.6c0,2.7,1.9,4.9,4.4,5.6V95.1z"/>
		<path class="st1" d="M186.2,95v11.3c2.7-0.4,4.8-2.8,4.8-5.6C191,97.8,188.9,95.5,186.2,95"/>
		<g>
			<path class="st3" d="M160.7,69.7c-10.5-21.6-32.8-36.6-58.4-36.6S54.4,48.1,43.9,69.7H160.7z"/>
			<path class="st3" d="M43.1,124.8C53.3,147.3,76,163,102.3,163s49-15.7,59.2-38.2H43.1z"/>
		</g>
		<path d="M48,111.2c-2.6,0-4.6,2.1-4.6,4.6c0,2.6,2.1,4.6,4.6,4.6c2.6,0,4.6-2.1,4.6-4.6C52.7,113.3,50.6,111.2,48,111.2"/>
		<path d="M72.4,111.2c-2.6,0-4.6,2.1-4.6,4.6c0,2.6,2.1,4.6,4.6,4.6c2.6,0,4.6-2.1,4.6-4.6C77,113.3,74.9,111.2,72.4,111.2"/>
		<path d="M137.6,111.2c-2.6,0-4.6,2.1-4.6,4.6c0,2.6,2.1,4.6,4.6,4.6c2.6,0,4.6-2.1,4.6-4.6C142.3,113.3,140.2,111.2,137.6,111.2"
			/>
		<path d="M152.3,111.2c-2.6,0-4.6,2.1-4.6,4.6c0,2.6,2.1,4.6,4.6,4.6c2.6,0,4.6-2.1,4.6-4.6C157,113.3,154.9,111.2,152.3,111.2"/>
		<path d="M159.4,106.6H59.2c-0.3,0-0.5-0.2-0.5-0.5V90.7c0-0.4-0.3-0.8-0.8-0.8H45.7c-1,0-1.8,0.5-2.3,1.3
			c-1.5,2.4-4.4,7.4-4.6,8.5c-0.3,1.7,0,14.3,0,14.3h2.4c0.8-3,3.5-5.3,6.8-5.3c3.3,0,6,2.2,6.8,5.3h10.6c0.8-3,3.5-5.3,6.8-5.3
			c3.3,0,6,2.2,6.8,5.3h51.6c0.8-3,3.5-5.3,6.8-5.3c3.3,0,6,2.2,6.8,5.3h1.4c0.8-3,3.5-5.3,6.8-5.3c3.3,0,5.7,2.2,6.5,5.3h0.4
			L159.4,106.6z M56.4,99.8H41.3c0.4-1.2,2.8-5.5,3.8-7.2c0.4-0.6,1-1,1.7-1h9.6V99.8z"/>
		<g>
			<polygon class="st1" points="139.6,86.2 137.5,93 142,93 139.8,86.2 			"/>
			<path class="st1" d="M157.6,75.2H63c-1,0-1.8,0.8-1.8,1.8v27.2h98.2V76.9C159.4,76,158.6,75.2,157.6,75.2z M84,100.2l-7.4-8.4
				v8.4H66V80.1h10.6v8.7l6.9-8.7h12.3L86.7,90l10.4,10.2H84z M121.4,86.7h-6.1v13.5h-10.8V86.7h-6.1v-6.6h23.1V86.7z M144.8,100.2
				l-0.9-2.5h-8.3l-0.9,2.5h-11.6l10.7-20.1H146l10.6,20.1H144.8z"/>
		</g>
		<polygon class="st4" points="25,83.2 13.4,80.3 14,77.9 19.2,79.2 15.2,73.2 16,70 19.4,75.6 27.7,72.7 26.9,75.8 20.7,77.6 
			22.1,80 25.6,80.9 		"/>
		<polygon class="st4" points="28.7,70.4 17.8,65.3 21.6,57.3 23.4,58.1 20.7,64 23.1,65.1 25.6,59.7 27.4,60.5 24.9,66 27.9,67.3 
			30.7,61.3 32.5,62.1 		"/>
		<polygon class="st4" points="34.2,59.2 24.5,52.3 25.8,50.4 35.2,51 28.7,46.4 30,44.5 39.7,51.5 38.3,53.5 29.2,52.9 35.5,57.4 
					"/>
		<polygon class="st4" points="44.6,46.4 41.1,42.8 33.1,40.9 35.1,38.9 40.5,40.4 39.2,35 41.2,33.1 42.8,41.2 46.3,44.8 		"/>
		<path class="st4" d="M59,34.9l-2.1,1.5l-2.4-1.6l-3.9,2.8l0.8,2.8l-2.1,1.5l-3.2-12.5l2.1-1.5L59,34.9z M52.6,33.6L48.7,31
			l1.3,4.6L52.6,33.6z"/>
		<polygon class="st4" points="68.3,29.9 64.1,20.9 60.8,22.4 60,20.5 68.6,16.5 69.5,18.4 66.2,19.9 70.5,28.9 		"/>
		<path class="st4" d="M76.3,26.4L73,14.8l4.9-1.4c1.2-0.4,2.2-0.5,2.8-0.5c0.6,0,1.2,0.3,1.7,0.7c0.5,0.4,0.8,1,1,1.7
			c0.2,0.9,0.2,1.6-0.1,2.4c-0.3,0.7-1,1.3-2,1.7c0.6,0.1,1.1,0.3,1.5,0.6c0.4,0.3,1,0.8,1.9,1.5l2.1,1.8l-2.8,0.8l-2.4-2
			c-0.9-0.7-1.4-1.2-1.7-1.3c-0.3-0.2-0.6-0.3-0.8-0.3c-0.3,0-0.7,0.1-1.2,0.2l-0.5,0.1l1.4,4.8L76.3,26.4z M76.7,19l1.7-0.5
			c1.1-0.3,1.8-0.6,2.1-0.7c0.2-0.2,0.4-0.4,0.5-0.7c0.1-0.3,0.1-0.6,0-0.9c-0.1-0.4-0.3-0.7-0.6-0.8c-0.3-0.2-0.6-0.2-1-0.2
			c-0.2,0-0.8,0.2-1.7,0.5l-1.8,0.5L76.7,19z"/>
		<path class="st4" d="M100,21.9l-2.6,0.3l-1.3-2.6L91.3,20l-0.7,2.8l-2.6,0.3l3.5-12.4l2.5-0.3L100,21.9z M95.1,17.6L93,13.4
			l-1.2,4.6L95.1,17.6z"/>
		<polygon class="st4" points="102.6,22 103.6,10 105.9,10.2 110.1,18.6 110.8,10.6 113.1,10.8 112.1,22.8 109.6,22.6 105.5,14.4 
			104.8,22.2 		"/>
		<path class="st4" d="M116.2,19.5l2.3,0.3c-0.1,0.8,0.1,1.4,0.4,1.9s0.9,0.8,1.6,1c0.8,0.2,1.4,0.2,1.8-0.1c0.5-0.2,0.7-0.5,0.9-1
			c0.1-0.3,0-0.5-0.1-0.8c-0.1-0.2-0.4-0.5-0.7-0.7c-0.2-0.2-0.8-0.5-1.8-1c-1.2-0.6-2-1.2-2.4-1.8c-0.6-0.8-0.7-1.7-0.5-2.6
			c0.2-0.6,0.5-1.1,0.9-1.5c0.5-0.4,1-0.7,1.7-0.8s1.5-0.1,2.4,0.2c1.5,0.4,2.5,1,3.1,1.8c0.6,0.8,0.8,1.8,0.5,2.8l-2.4-0.5
			c0-0.6-0.1-1.1-0.3-1.5c-0.3-0.3-0.7-0.6-1.4-0.8c-0.7-0.2-1.3-0.2-1.7,0c-0.3,0.1-0.5,0.3-0.6,0.6c-0.1,0.3,0,0.5,0.2,0.8
			c0.2,0.3,0.9,0.8,2,1.3c1.1,0.6,1.8,1,2.3,1.5c0.5,0.4,0.8,0.9,1,1.5s0.2,1.2,0,2c-0.2,0.7-0.5,1.2-1,1.7
			c-0.5,0.5-1.1,0.8-1.9,0.9c-0.7,0.1-1.6,0-2.6-0.2c-1.5-0.4-2.5-1-3.1-1.9C116.2,22,116,20.8,116.2,19.5"/>
		<path class="st4" d="M127.8,26.7l4.5-11.1l3.6,1.4c1.4,0.5,2.2,1,2.6,1.2c0.6,0.4,1,1,1.2,1.7c0.2,0.7,0.1,1.5-0.2,2.4
			c-0.3,0.7-0.6,1.2-1.1,1.6c-0.4,0.4-0.9,0.6-1.4,0.7c-0.5,0.1-0.9,0.1-1.4,0.1c-0.6-0.1-1.4-0.4-2.4-0.8l-1.5-0.6l-1.7,4.2
			L127.8,26.7z M133.8,18.4l-1.3,3.2l1.2,0.5c0.9,0.4,1.5,0.5,1.8,0.5c0.3,0,0.7-0.1,0.9-0.3c0.3-0.2,0.5-0.4,0.6-0.8
			c0.2-0.4,0.2-0.8,0-1.1c-0.1-0.4-0.4-0.6-0.7-0.9c-0.2-0.2-0.8-0.4-1.6-0.7L133.8,18.4z"/>
		<path class="st4" d="M141.7,26.1c0.6-1.1,1.2-1.9,2-2.4c0.5-0.4,1.1-0.7,1.8-0.9c0.6-0.2,1.3-0.3,1.9-0.2c0.8,0.1,1.6,0.4,2.5,0.8
			c1.5,0.8,2.5,2,2.9,3.5c0.4,1.5,0.1,3.1-0.8,4.8c-0.9,1.7-2.1,2.8-3.6,3.2c-1.4,0.5-2.9,0.3-4.5-0.6c-1.6-0.9-2.5-2-2.9-3.5
			C140.5,29.3,140.8,27.8,141.7,26.1 M143.9,27.2c-0.7,1.2-0.9,2.2-0.7,3.2c0.2,0.9,0.7,1.6,1.6,2.1c0.8,0.5,1.7,0.5,2.6,0.2
			c0.9-0.3,1.6-1.1,2.3-2.3c0.7-1.2,0.9-2.2,0.7-3.1c-0.2-0.9-0.7-1.6-1.6-2c-0.9-0.5-1.7-0.6-2.6-0.3
			C145.4,25.3,144.6,26,143.9,27.2"/>
		<path class="st4" d="M151.5,38.9l8.1-8.9l3.8,3.4c0.9,0.9,1.6,1.6,1.8,2.1c0.3,0.5,0.4,1.1,0.3,1.8c-0.1,0.6-0.4,1.2-0.9,1.7
			c-0.6,0.7-1.3,1-2.1,1.1c-0.8,0.1-1.6-0.2-2.5-0.8c0.2,0.6,0.3,1.1,0.3,1.6c0,0.5-0.1,1.3-0.3,2.4l-0.5,2.7l-2.1-1.9l0.5-3.1
			c0.2-1.1,0.2-1.8,0.2-2.2c0-0.3-0.1-0.6-0.2-0.9c-0.1-0.2-0.4-0.5-0.8-0.9l-0.4-0.3l-3.4,3.7L151.5,38.9z M158,35.4l1.3,1.2
			c0.9,0.8,1.4,1.2,1.7,1.4c0.3,0.1,0.6,0.2,0.8,0.1c0.3-0.1,0.5-0.2,0.8-0.5c0.3-0.3,0.4-0.6,0.4-0.9c0-0.3-0.1-0.6-0.4-1
			c-0.1-0.2-0.6-0.6-1.3-1.2l-1.4-1.3L158,35.4z"/>
		<polygon class="st4" points="162.7,50.3 170.6,44.3 168.5,41.4 170.1,40.2 175.9,47.8 174.2,49 172.1,46.2 164.2,52.2 		"/>
		<polygon class="st4" points="167.8,57.5 178.4,51.8 182.6,59.6 180.8,60.6 177.7,54.9 175.4,56.1 178.3,61.4 176.5,62.4 
			173.6,57.1 170.8,58.6 174,64.5 172.2,65.5 		"/>
		<path class="st4" d="M173.5,68.5l11.3-4.1l1.7,4.8c0.4,1.2,0.7,2.1,0.7,2.7c0,0.6-0.2,1.2-0.6,1.7c-0.4,0.5-0.9,0.9-1.6,1.1
			c-0.8,0.3-1.6,0.3-2.4,0c-0.7-0.3-1.3-0.9-1.8-1.8c-0.1,0.6-0.3,1.1-0.5,1.6c-0.2,0.4-0.7,1.1-1.4,2l-1.7,2.2l-1-2.7l1.8-2.5
			c0.7-0.9,1.1-1.5,1.2-1.8c0.2-0.3,0.2-0.6,0.2-0.9c0-0.3-0.1-0.7-0.3-1.2l-0.2-0.5l-4.7,1.7L173.5,68.5z M180.8,68.4l0.6,1.7
			c0.4,1.1,0.7,1.8,0.9,2c0.2,0.2,0.4,0.4,0.7,0.5c0.3,0.1,0.6,0,0.9-0.1c0.4-0.1,0.6-0.3,0.8-0.6c0.2-0.3,0.2-0.6,0.1-1
			c0-0.2-0.2-0.8-0.6-1.7l-0.6-1.8L180.8,68.4z"/>
		<path class="st4" d="M181.5,79.7l0.7,2.3c-0.7,0.3-1.2,0.7-1.5,1.2c-0.3,0.5-0.3,1.1-0.2,1.8c0.2,0.8,0.4,1.3,0.8,1.6
			c0.4,0.3,0.8,0.4,1.3,0.3c0.3-0.1,0.5-0.2,0.7-0.4c0.2-0.2,0.3-0.5,0.3-1c0-0.3,0.1-1,0.1-2c0-1.3,0.2-2.3,0.6-2.9
			c0.5-0.9,1.2-1.4,2.1-1.6c0.6-0.1,1.2-0.1,1.8,0.1c0.6,0.2,1.1,0.6,1.5,1.2c0.4,0.6,0.7,1.3,0.9,2.2c0.3,1.5,0.2,2.6-0.3,3.5
			c-0.5,0.9-1.3,1.5-2.3,1.7l-0.6-2.3c0.6-0.2,1-0.5,1.2-0.9c0.2-0.4,0.2-0.9,0.1-1.6c-0.1-0.7-0.4-1.2-0.8-1.5
			c-0.2-0.2-0.5-0.3-0.8-0.2c-0.3,0.1-0.5,0.2-0.6,0.5c-0.2,0.4-0.3,1.1-0.3,2.3c0,1.2-0.1,2.1-0.3,2.7c-0.2,0.6-0.5,1.1-0.9,1.6
			c-0.4,0.4-1,0.7-1.8,0.9c-0.7,0.1-1.3,0.1-2-0.2c-0.7-0.2-1.2-0.7-1.6-1.3c-0.4-0.6-0.8-1.4-1-2.5c-0.3-1.5-0.2-2.7,0.3-3.6
			C179.3,80.8,180.2,80.2,181.5,79.7"/>
		<path class="st4" d="M45.5,166.2l-2-1.7l1-2.7l-3.6-3.1l-2.5,1.4l-1.9-1.7l11.4-6l1.9,1.7L45.5,166.2z M45.2,159.7l1.6-4.4
			l-4.1,2.3L45.2,159.7z"/>
		<path class="st4" d="M50.3,164.8l2.1,1.1c-0.3,0.7-0.4,1.4-0.2,1.9c0.2,0.5,0.5,1,1.2,1.4c0.6,0.4,1.2,0.6,1.7,0.6
			c0.5-0.1,0.9-0.3,1.1-0.6c0.2-0.2,0.2-0.5,0.2-0.7c0-0.3-0.2-0.6-0.4-0.9c-0.2-0.2-0.6-0.7-1.3-1.5c-0.9-1-1.4-1.8-1.6-2.5
			c-0.3-1-0.1-1.8,0.4-2.6c0.3-0.5,0.8-0.9,1.4-1.1c0.6-0.3,1.2-0.3,1.9-0.2c0.7,0.1,1.4,0.4,2.2,0.9c1.3,0.8,2,1.7,2.3,2.7
			c0.3,1,0.1,1.9-0.5,2.9l-2.1-1.2c0.3-0.6,0.3-1.1,0.2-1.5c-0.1-0.4-0.5-0.8-1.1-1.2c-0.6-0.4-1.1-0.6-1.6-0.5
			c-0.3,0-0.6,0.2-0.7,0.4c-0.2,0.2-0.2,0.5-0.1,0.8c0.1,0.4,0.6,1,1.4,1.9c0.8,0.9,1.4,1.6,1.7,2.2c0.3,0.6,0.5,1.1,0.4,1.7
			c0,0.6-0.2,1.2-0.7,1.9c-0.4,0.6-0.9,1-1.5,1.3c-0.6,0.3-1.3,0.4-2.1,0.2c-0.7-0.1-1.5-0.5-2.4-1.1c-1.3-0.8-2-1.8-2.3-2.8
			C49.5,167.2,49.7,166,50.3,164.8"/>
		<path class="st4" d="M61.3,171.9l2.2,0.8c-0.2,0.8-0.2,1.4,0,1.9c0.2,0.5,0.7,0.9,1.3,1.3c0.7,0.3,1.3,0.5,1.8,0.3
			c0.5-0.1,0.8-0.4,1-0.8c0.1-0.3,0.2-0.5,0.1-0.8c-0.1-0.2-0.2-0.5-0.6-0.8c-0.2-0.2-0.7-0.7-1.5-1.3c-1-0.9-1.7-1.6-1.9-2.3
			c-0.4-0.9-0.3-1.8,0.1-2.6c0.3-0.5,0.7-1,1.2-1.3c0.5-0.3,1.2-0.5,1.9-0.4c0.7,0,1.5,0.3,2.3,0.7c1.4,0.7,2.2,1.5,2.6,2.4
			c0.4,0.9,0.4,1.9-0.1,2.9l-2.2-1c0.2-0.6,0.2-1.1,0-1.5c-0.2-0.4-0.6-0.7-1.2-1c-0.6-0.3-1.2-0.4-1.7-0.3
			c-0.3,0.1-0.5,0.2-0.7,0.5c-0.1,0.3-0.1,0.5,0,0.8c0.2,0.4,0.7,0.9,1.6,1.7c0.9,0.8,1.6,1.4,2,1.9c0.4,0.5,0.6,1.1,0.6,1.7
			c0.1,0.6-0.1,1.2-0.4,1.9c-0.3,0.6-0.8,1.1-1.4,1.5c-0.6,0.4-1.3,0.5-2,0.5c-0.8,0-1.6-0.3-2.5-0.8c-1.4-0.7-2.2-1.5-2.7-2.5
			C60.9,174.3,60.9,173.2,61.3,171.9"/>
		<path class="st4" d="M73.9,175.7c0.4-1.2,0.9-2.1,1.5-2.8c0.4-0.5,1-0.9,1.6-1.2c0.6-0.3,1.2-0.5,1.8-0.6c0.8-0.1,1.7,0,2.6,0.3
			c1.7,0.5,2.9,1.5,3.5,2.8c0.7,1.4,0.7,3,0.1,4.8c-0.6,1.8-1.5,3.1-2.9,3.8c-1.3,0.7-2.8,0.8-4.5,0.3c-1.7-0.5-2.9-1.5-3.6-2.8
			C73.4,179.1,73.3,177.5,73.9,175.7 M76.3,176.4c-0.4,1.3-0.4,2.4,0,3.2c0.4,0.9,1,1.4,2,1.7c0.9,0.3,1.8,0.2,2.6-0.3
			c0.8-0.5,1.4-1.4,1.8-2.7c0.4-1.3,0.4-2.4,0.1-3.2c-0.4-0.8-1-1.4-2-1.7c-0.9-0.3-1.8-0.2-2.6,0.2C77.3,174.2,76.7,175,76.3,176.4
			"/>
		<path class="st4" d="M95.7,182.4l2.2,1.1c-0.5,1.2-1.3,2.1-2.2,2.6c-0.9,0.5-2,0.7-3.3,0.5c-1.6-0.2-2.8-0.9-3.7-2.2
			c-0.9-1.2-1.2-2.8-0.9-4.6c0.3-2,1-3.4,2.2-4.4c1.2-1,2.6-1.3,4.2-1.1c1.5,0.2,2.6,0.8,3.4,1.8c0.5,0.6,0.8,1.4,0.9,2.4l-2.5,0.2
			c-0.1-0.6-0.3-1.2-0.7-1.6c-0.4-0.4-0.9-0.7-1.5-0.8c-0.9-0.1-1.6,0.1-2.3,0.7c-0.6,0.6-1,1.5-1.2,3c-0.2,1.5-0.1,2.6,0.4,3.3
			c0.5,0.7,1.1,1.1,2,1.2c0.6,0.1,1.2,0,1.7-0.4C95,183.9,95.4,183.3,95.7,182.4"/>
		
			<rect x="97.2" y="180" transform="matrix(4.842763e-03 -1 1 4.842763e-03 -78.4707 283.5118)" class="st4" width="12" height="2.4"/>
		<path class="st4" d="M119.9,185.7l-2.6,0.3l-1.4-2.6l-4.8,0.6l-0.6,2.8l-2.5,0.3l3.1-12.5l2.5-0.3L119.9,185.7z M114.9,181.6
			l-2.2-4.2l-1,4.6L114.9,181.6z"/>
		<polygon class="st4" points="125,184.3 122.4,174.8 118.9,175.7 118.4,173.8 127.6,171.2 128.1,173.2 124.7,174.1 127.4,183.7 		
			"/>
		
			<rect x="132.2" y="169.3" transform="matrix(0.9288 -0.3707 0.3707 0.9288 -55.4622 61.9246)" class="st4" width="2.4" height="12"/>
		<path class="st4" d="M138,173.6c-0.6-1.1-0.9-2.1-1-3c0-0.7,0-1.3,0.2-2c0.2-0.6,0.5-1.2,0.9-1.7c0.5-0.6,1.2-1.2,2.1-1.6
			c1.6-0.8,3.1-1,4.5-0.5c1.5,0.5,2.6,1.6,3.6,3.3c0.9,1.7,1.2,3.3,0.7,4.7c-0.4,1.5-1.4,2.6-2.9,3.4c-1.6,0.8-3.1,1-4.5,0.6
			C140,176.3,138.9,175.2,138,173.6 M140.1,172.3c0.6,1.2,1.4,2,2.3,2.3c0.9,0.3,1.8,0.3,2.6-0.2c0.8-0.5,1.4-1.1,1.6-2
			c0.2-0.9,0-2-0.7-3.2c-0.6-1.2-1.4-2-2.2-2.3c-0.8-0.3-1.7-0.2-2.6,0.2c-0.9,0.5-1.4,1.1-1.6,2C139.3,170,139.5,171.1,140.1,172.3
			"/>
		<polygon class="st4" points="154.7,170.9 147.8,161.1 149.7,159.8 158.4,163.5 153.7,156.9 155.6,155.6 162.5,165.4 160.5,166.8 
			152.1,163.2 156.6,169.6 		"/>
	</g>
</g>
</svg>
